<?xml version="1.0" encoding="utf-8"?>
<!-- Generator: Adobe Illustrator 17.0.0, SVG Export Plug-In . SVG Version: 6.00 Build 0)  -->
<!DOCTYPE svg PUBLIC "-//W3C//DTD SVG 1.1//EN" "http://www.w3.org/Graphics/SVG/1.1/DTD/svg11.dtd">
<svg version="1.1" id="REFRESH_1_" xmlns="http://www.w3.org/2000/svg" xmlns:xlink="http://www.w3.org/1999/xlink" x="0px" y="0px"
	 width="50px" height="50px" viewBox="0 0 50 50" style="enable-background:new 0 0 50 50;" xml:space="preserve">
<style type="text/css">
	.st0{fill-rule:evenodd;clip-rule:evenodd;fill:#FFFFFF;}
</style>
<g id="REFRESH">
	<g>
		<path class="st0" d="M40.1,5.7c0,0-0.3-0.2-0.5-0.3c-1.1-0.6-2.6-0.3-3.2,0.9l-3,5.1c-1,1.7-0.5,3.6,0.3,4.3
			c4.6,4,6,10.5,2.8,15.9c-3.6,6.2-11.6,8.5-17.8,5c-6.2-3.5-7-11-3.5-17.1l3.9,2.3c1.2,0.7,2.7,0.2,3.4-1c0.3-0.5,0.4-1,0.3-1.5
			L21,2.5c-0.6-2.1-1.9-2.9-4-2.3L1.5,6.8C1.1,7.1,0.6,7.4,0.4,7.9c-0.7,1.2-0.3,2.8,0.9,3.4l3.9,2.3C-1.6,25.4,1.1,40,12.9,46.7
			c3.7,2.1,7.7,3.2,11.7,3.3h1.3c8.3-0.2,16.4-4.6,20.8-12.3C53,26.8,50,13,40.1,5.7z"/>
	</g>
</g>
</svg>
