<?xml version="1.0" encoding="utf-8"?>
<!-- Generator: Adobe Illustrator 17.0.0, SVG Export Plug-In . SVG Version: 6.00 Build 0)  -->
<!DOCTYPE svg PUBLIC "-//W3C//DTD SVG 1.1//EN" "http://www.w3.org/Graphics/SVG/1.1/DTD/svg11.dtd">
<svg version="1.1" id="Лого_1_" xmlns="http://www.w3.org/2000/svg" xmlns:xlink="http://www.w3.org/1999/xlink" x="0px"
	 y="0px" width="88px" height="46px" viewBox="0 0 88 46" style="enable-background:new 0 0 88 46;" xml:space="preserve">
<style type="text/css">
	.st0{fill-rule:evenodd;clip-rule:evenodd;fill:#1A1A1A;}
</style>
<g id="Лого">
	<g>
		<path class="st0" d="M78.9,0.3c-2.8,0-7.6,0.3-14.4,0.9c-6.8,0.6-11.5,0.9-14,0.9c-0.9,1.9-1.3,3.7-1.3,5.4c0,3.4,1.6,5.4,4.9,6
			c-0.2,1.7-0.5,3.3-0.9,5.1c-0.4,1.7-0.8,3.5-1.3,5.3L49.3,33c-0.7,2.5-1,4.5-1,6.2l0-0.1c0,1.7,0.7,3.2,2.1,4.4
			c1.4,1.2,3.4,1.8,6,1.8c2,0,3.9-0.4,5.9-1.2c2-0.8,3.7-2.1,5.2-3.9l-4.1-1.9l2.3-9.2c1.1,0,2.1-0.1,2.8-0.1c0.8,0,1.4,0,1.8,0
			c3.2,0,5.7,0.2,7.6,0.7c0.4-0.7,0.8-1.6,1-2.7c0.3-1.1,0.4-2.1,0.4-2.8c0-2.9-1.7-4.3-5.1-4.3c-2,0-4.3,0.2-6.6,0.6
			c0.3-1.3,0.5-2.6,0.7-3.7c0.2-1.2,0.4-2.2,0.5-3.2c1.2,0,2.3-0.1,3.1-0.1c0.8,0,1.4,0,1.8,0c5.8,0,9.5,0.4,11.1,1.1
			c0.8-1,1.5-2.2,2-3.5c0.5-1.3,0.8-2.6,0.8-3.8C87.8,2.5,84.8,0.3,78.9,0.3z M47.1,13c0-1.6-0.6-3.2-1.8-4.7
			c-1.2-1.5-3-2.8-5.3-4.1C37.7,3,34.6,2,30.8,1.3C27,0.6,22.7,0.2,18,0.2c-1.4,0-2.7,0-4,0.1c-1.2,0.1-2.4,0.2-3.4,0.3
			C8.5,1,6.6,1.5,5,2.1C3.4,2.8,2.1,3.8,1.3,5C0.4,6.3,0,7.8,0,9.5c0,2.1,0.9,4.3,2.6,6.7l2.1-2.6l4.1-0.5C8.4,16.3,8,20,7.3,24.2
			c-0.7,4.2-1.6,9-2.7,14.4c-0.2,1-0.3,1.8-0.3,2.3c0,0.6,1,1.3,3,1.9c1,0.3,2.1,0.6,3.3,0.9c1.2,0.3,2.4,0.5,3.8,0.7
			c1.4,0.2,2.6,0.4,3.8,0.5c1.2,0.1,2.3,0.1,3.3,0.1c3.6,0,6.8-0.2,9.6-0.7c2.9-0.5,5.3-1.1,7.2-1.9c2-0.8,3.6-1.8,4.8-3
			c1.3-1.2,2.2-2.4,2.8-3.8c0.6-1.3,0.9-2.8,0.9-4.4c0-4.1-2.6-7.1-7.9-9.1C44.4,19.6,47.1,16.5,47.1,13z M28,34
			c-1.5,0.7-3.7,1.1-6.4,1.1c-0.4,0-0.8,0-1.1,0c-0.3,0-0.6,0-0.9,0h0c0.9-3.6,1.5-6.3,1.9-8.4c5.9,0.5,8.9,1.8,8.9,3.9
			C30.3,32.1,29.5,33.3,28,34z M30.9,20.4c-2.4-0.3-5.1-0.4-8.1-0.4c0.6-3.6,1-5.9,1.1-6.9c5.3,0.5,8,1.7,8,3.7
			C31.8,17.7,31.5,18.9,30.9,20.4z"/>
	</g>
</g>
</svg>
