<?xml version="1.0" encoding="utf-8"?>
<!-- Generator: Adobe Illustrator 17.0.0, SVG Export Plug-In . SVG Version: 6.00 Build 0)  -->
<!DOCTYPE svg PUBLIC "-//W3C//DTD SVG 1.1//EN" "http://www.w3.org/Graphics/SVG/1.1/DTD/svg11.dtd">
<svg version="1.1" id="Лого_1_" xmlns="http://www.w3.org/2000/svg" xmlns:xlink="http://www.w3.org/1999/xlink" x="0px"
	 y="0px" width="328px" height="66px" viewBox="0 0 328 66" style="enable-background:new 0 0 328 66;" xml:space="preserve">
<style type="text/css">
	.st0{fill-rule:evenodd;clip-rule:evenodd;fill:#1A1A1A;}
</style>
<g id="Лого">
	<g>
		<path class="st0" d="M38.9,25.3c5.4-2.7,8.2-5.8,8.2-9.3c0-1.6-0.6-3.2-1.8-4.7c-1.2-1.5-3-2.8-5.3-4.1C37.7,6,34.6,5,30.8,4.3
			C27,3.6,22.7,3.2,18,3.2c-1.4,0-2.7,0-4,0.1c-1.2,0.1-2.4,0.2-3.4,0.3C8.5,4,6.6,4.5,5,5.1C3.4,5.8,2.1,6.8,1.3,8
			C0.4,9.3,0,10.8,0,12.5c0,2.1,0.9,4.3,2.6,6.7l2.1-2.6l4.1-0.5C8.4,19.3,8,23,7.3,27.2c-0.7,4.2-1.6,9-2.7,14.4
			c-0.2,1-0.3,1.8-0.3,2.3c0,0.6,1,1.3,3,1.9c1,0.3,2.1,0.6,3.3,0.9c1.2,0.3,2.4,0.5,3.8,0.7c1.4,0.2,2.6,0.4,3.8,0.5
			c1.2,0.1,2.3,0.1,3.3,0.1c3.6,0,6.8-0.2,9.6-0.7c2.9-0.5,5.3-1.1,7.2-1.9c2-0.8,3.6-1.8,4.8-3c1.3-1.2,2.2-2.4,2.8-3.8
			c0.6-1.3,0.9-2.8,0.9-4.4C46.8,30.3,44.2,27.3,38.9,25.3z M28,37c-1.5,0.7-3.7,1.1-6.4,1.1c-0.4,0-0.8,0-1.1,0c-0.3,0-0.6,0-0.9,0
			h0c0.9-3.6,1.5-6.3,1.9-8.4c5.9,0.5,8.9,1.8,8.9,3.9C30.3,35.1,29.5,36.3,28,37z M30.9,23.4c-2.4-0.3-5.1-0.4-8.1-0.4
			c0.6-3.6,1-5.9,1.1-6.9c5.3,0.5,8,1.7,8,3.7C31.8,20.7,31.5,21.9,30.9,23.4z M192.2,9.4c0.5,0.7,1.1,1.2,1.9,1.5
			c0.8,0.3,1.5,0.6,2.3,0.7c0.7,0.1,1.5,0.2,2.3,0.2c2.2,0,4.1-0.6,5.6-1.9c1.5-1.2,2.3-2.9,2.3-5c0-1.5-0.7-2.7-2-3.6
			c-1.3-0.9-3.1-1.3-5.4-1.3c-2.3,0-4.1,0.6-5.6,1.8c-1.4,1.2-2.2,2.9-2.2,4.9l0,0.1C191.5,7.8,191.7,8.7,192.2,9.4z M327.6,18.1
			c0.3-1.1,0.4-1.7,0.4-1.9c0-0.5-0.4-0.8-1.1-0.9c-0.3-0.1-2-0.3-5.1-0.6c-3.1-0.3-4.8-0.5-5-0.5c-0.3,0-0.5,0.1-0.7,0.3
			c-0.2,0.2-0.3,0.5-0.6,1l-1.2,2.7c-1.6-3.3-4.4-4.9-8.3-4.9c-2.6,0-5,0.7-7.4,2c-2.4,1.4-4.3,3.1-6,5.2c-1.6,2.1-2.9,4.6-3.9,7.3
			c-1,2.7-1.7,5.4-1.7,8.1c0,0.3,0,0.7,0,1c-0.1,0.2,0.2,0.6,0,1c-0.4,0.9-0.8,1.6-1.3,2.2c-1.3,0.8-3.6,1.1-4.7,0.8
			c-1.4-0.4-1.5-2.2-1.5-2.2c0.5-3.9,1.5-8.9,2.8-14.9c0.2,0,0.3,0,0.6,0c0.2,0,0.5,0,0.9,0c0.3,0,0.6,0,0.9,0c0.2,0,0.4,0,0.6,0
			c1.9,0,3.3-0.5,4.3-1.6c1-1.1,1.6-2.3,1.6-3.8c0-0.9-0.2-1.8-0.6-2.7c-1.1,0.2-2.2,0.3-3.3,0.3c-1.1,0.1-2.2,0.1-3.2,0.1
			c1.3-3.9,2-6.2,2-6.8c0-0.2-0.1-0.3-0.2-0.5c-0.2-0.1-0.4-0.2-0.9-0.3l-5.4-0.6c-0.6,0-1-0.1-1.3-0.1c-0.3,0-0.5,0-0.5,0
			c-0.3,0-0.6,0.3-0.9,0.8c-2.1,2.9-4.3,4.9-6.6,6.1c-0.4,0.2-0.8,0.4-1.3,0.6c-0.4,0.2-0.9,0.4-1.3,0.6l-2.1,0.9
			c-0.5,0.2-0.7,0.8-1.5,0.1c-0.1-0.1-0.2-0.1-0.2,0c-0.6-0.7-1.5-1.3-2.6-1.8c-2.6-1.2-6-1.9-10.1-1.9c-1.5,0-3,0.1-4.4,0.4
			c-1.4,0.3-2.8,0.7-4.1,1.3c-1.3,0.6-2.5,1.3-3.5,2.2c-1,0.9-1.8,1.9-2.4,3.2c-0.6,1.3-0.9,2.7-0.9,4.2c0,1.3,0.3,2.6,0.8,3.7
			c0.5,1.2,1.2,2.2,2.1,3.1c0.8,0.9,1.7,1.7,2.6,2.6c0.9,0.9,1.8,1.6,2.6,2.3c0.8,0.7,1.5,1.3,2.1,2.1c0.5,0.7,0.8,1.4,0.8,2.1
			c0,0.8-0.4,1.1-1.3,1.1c-1.2,0-2.5-0.6-4-1.8c-0.8-0.7-2.1-1.9-3.3-3.1c0-0.2-0.1-0.4-0.3-0.6c-0.3-0.2-0.6-0.4-0.8-0.6
			c-0.5-0.6-1-1.1-1.2-1.4c0,0,0,0-0.1,0c-0.7-0.4-0.7-1-1.9-1c-1.3,0-0.8,0.2-2.6,1l-1.6,1c-2.3,1-4.5,1.5-7.1,1.5
			c-1,0-1.9-0.1-2.8-0.3c-0.9-0.2-1.8-0.5-2.6-0.9c-0.9-0.4-1.6-1.1-2.1-1.9c-0.6-0.8-0.9-1.8-1-2.9c2.4,1.3,5.1,1.9,8,1.9
			c3.6,0,6.5-0.9,8.8-2.7c2.3-1.8,3.5-4.3,3.5-7.3c0-2.6-1-4.8-3.1-6.4c-2-1.6-5-2.4-8.9-2.4c-2.7,0-5.3,0.5-7.9,1.5
			c-2.6,1-5,2.4-7.1,4.1c-2.1,1.7-3.8,3.9-5.1,6.5c-1.3,2.6-2,5.3-2,8.2c0,1.9,0.3,3.7,1,5.3c-1,1.6-2,2.3-2.9,2.6l-0.5-0.2
			c0.3-4.7,1.7-12.4,4.2-23.2c0.2-0.9,0.3-1.4,0.3-1.8c0-0.5-0.3-0.9-1-1c-0.1,0-1-0.1-2.7-0.3c-0.9-0.1-1.7-0.2-2.5-0.3
			c-0.8-0.1-1.6-0.2-2.4-0.2c-0.8-0.1-1.4-0.1-1.8-0.2c-0.4,0-0.7,0-0.7,0c-0.3,0-0.5,0.1-0.7,0.3c-0.2,0.2-0.3,0.5-0.6,1
			c-1.9,4.2-3.6,8.6-5.1,13.3c-1.4,4.8-2.2,8.6-2.2,11.4h0c0,2.5,0.7,4.3,2.1,5.6c1.4,1.3,3.3,1.9,5.8,1.9c1.8,0,3.6-0.5,5.4-1.4
			c1.4-0.7,2.6-1.6,3.7-2.7c1.3-0.9,2.1-1.9,2.5-2.9c0.5,0.9,1.2,1.7,1.9,2.3c1.2,1.1,2.5,2,4,2.7c1.5,0.7,3.1,1.3,4.6,1.5
			c1.6,0.3,3.2,0.5,4.7,0.5c2.3,0,4.3-0.2,6-0.6c1.8-0.4,3.2-1,4.3-1.7c1.1-0.7,2-1.5,2.7-2.4c0.3-0.4,0.6-0.8,0.8-1.3
			c0.3,1.1,0.9,2,1.9,2.8c1.4,1.1,3.1,1.9,5.1,2.4c2.1,0.5,4.4,0.8,6.8,0.8c4.8,0,8.8-1,11.8-3.1c3.1-2.1,4.6-4.9,4.6-8.3
			c0-1.3-0.3-2.7-0.9-4c-0.5-1.3-1.2-2.4-2.1-3.3c-0.4-0.5-0.8-0.9-1.3-1.4c-0.4-0.4-0.9-0.9-1.4-1.3c-0.5-0.4-1-0.8-1.4-1.2
			c-0.4-0.4-0.9-0.7-1.3-1c-0.8-0.6-1.5-1.3-2.1-1.9c-0.6-0.7-0.9-1.3-0.9-1.8c0-0.3,0.1-0.6,0.4-0.8c0.3-0.2,0.6-0.3,1-0.3
			c1,0,2.1,0.4,3.3,1.3c1.2,0.9,2.7,1.8,4.1,2.9c0,0,1.9,1.3,3,1c2.2-0.6,6-2,6-2c-2.6,7.1-4.2,13.3-4.2,16.9c0,2.8,0.8,4.8,2.5,6.2
			c1.7,1.4,3.9,2,6.7,2c2.6,0,5.2-0.7,7.9-2c0.6-0.3,1.1-0.6,1.7-0.9c-1.1,0.5-1.4,0.4,0.2-0.1c-0.1,0-0.2,0.1-0.2,0.1
			c1.4-0.6,3.9-2,4.9-4.1c0.1-0.1,0.2-0.2,0.2-0.3c0,0,0-0.1-0.1-0.1c0.1-0.2,0.2-0.4,0.2-0.6c0.4,2,1.3,3.6,2.5,4.9
			c1.9,2.1,4.4,3.1,7.6,3.1c4.2,0,7.7-2.1,10.6-6.4c0.2,2.2,1,3.8,2.3,4.9c1.3,1,3.1,1.6,5.2,1.6c1.9,0,3.8-0.4,5.6-1.3
			c1.9-0.9,3.4-2.2,4.8-3.8l-2.9-1.3c0.2-2.1,0.6-5.1,1.3-9C325.4,28.7,326.3,23.9,327.6,18.1z M217.5,22.1c1.3-1.3,2.6-1.9,3.9-1.9
			c1.1,0,1.6,0.5,1.6,1.4c0,1-0.8,2.1-2.5,3.1c-1.6,1-3.6,1.7-6,2C215.2,24.9,216.2,23.4,217.5,22.1z M308.4,37.5
			c-1,0.4-1.9,0.6-2.7,0.6c-2.2,0-3.4-1.3-3.4-4l0,0c0-1.9,0.4-3.9,1.1-5.9c0.7-1.9,1.8-3.6,3.1-4.9c1.3-1.3,2.7-2,4.2-2
			c0.7,0,1.4,0.2,2,0.5C310.5,28.3,309,33.5,308.4,37.5z M200.4,33.9C200.4,33.9,200.4,33.9,200.4,33.9
			C200.4,33.9,200.4,33.8,200.4,33.9L200.4,33.9z M176.3,22.6c-2,0-4.3,0.2-6.6,0.6c0.3-1.3,0.5-2.6,0.7-3.7
			c0.2-1.2,0.4-2.2,0.5-3.2c1.2,0,2.3-0.1,3.1-0.1c0.8,0,1.4,0,1.8,0c5.8,0,9.5,0.4,11.1,1.1c0.8-1,1.5-2.2,2-3.5
			c0.5-1.3,0.8-2.6,0.8-3.8c0-4.3-3-6.5-8.9-6.5c-2.8,0-7.6,0.3-14.4,0.9c-6.8,0.6-11.5,0.9-14,0.9c-0.9,1.9-1.3,3.7-1.3,5.4
			c0,3.4,1.6,5.4,4.9,6c-0.2,1.7-0.5,3.3-0.9,5.1c-0.4,1.7-0.8,3.5-1.3,5.3l-2.5,9.2c-0.7,2.5-1,4.5-1,6.2l0-0.1
			c0,1.7,0.7,3.2,2.1,4.4c1.4,1.2,3.4,1.8,6,1.8c2,0,3.9-0.4,5.9-1.2c2-0.8,3.7-2.1,5.2-3.9l-4.1-1.9l2.3-9.2c1.1,0,2.1-0.1,2.8-0.1
			c0.8,0,1.4,0,1.8,0c3.2,0,5.7,0.2,7.6,0.7c0.4-0.7,0.8-1.6,1-2.7c0.3-1.1,0.4-2.1,0.4-2.8C181.4,24,179.7,22.6,176.3,22.6z
			 M137.1,4.1c-4.2,0-7.9,3.3-11.1,9.8c-1-0.2-2.1-0.3-3.3-0.3c-5.5,0-10,1.4-13.4,4.3c-3.5,2.9-5.3,6.4-5.3,10.4
			c0,3.3,1.3,5.8,3.9,7.7c-3.2,1.6-5.8,3.4-7.8,5.6c-2,2.2-3,4.3-3,6.2c0,1.7,0.8,3,2.4,4c-2.5,1.7-3.8,3.8-3.8,6.4l0.1-0.1
			c0,2.2,1.1,4.1,3.2,5.6c2.1,1.5,5.2,2.3,9.2,2.3c3.3,0,6.5-0.5,9.5-1.5c2.9-1,5.4-2.3,7.4-4c2-1.6,3.5-3.5,4.6-5.5
			s1.7-4.1,1.7-6.1c0-1-0.2-1.9-0.7-2.7c-0.4-0.7-0.9-1.3-1.6-1.8c-0.7-0.5-1.6-0.9-2.7-1.2c-1.2-0.3-2.3-0.6-3.3-0.7
			c-0.5-0.1-1.1-0.1-1.8-0.2c-0.7-0.1-1.4-0.1-2.3-0.2c-0.8-0.1-1.7-0.1-2.7-0.2l-2.5-0.2c-0.6,0-1.2-0.1-1.8-0.2
			c-0.6-0.1-1-0.2-1.3-0.4c-0.3-0.2-0.4-0.4-0.4-0.7c0-0.7,0.7-1.5,2-2.6c2,0.5,4.2,0.8,6.6,0.8c3.4,0,6.4-0.6,9.1-1.9
			c2.7-1.3,4.9-3,6.5-5.3c1.6-2.2,2.4-4.8,2.4-7.6c0-2.1-0.6-4-1.7-5.5c-1.1-1.5-2.6-2.7-4.5-3.5c2-1.4,4.5-2.1,7.4-2.1
			c1.1,0,2.1,0.1,3,0.3c0.9-1.3,1.3-2.7,1.3-4.2c0-1.5-0.5-2.8-1.4-3.7C140,4.5,138.7,4.1,137.1,4.1z M116.7,55.1
			c1.7,0.1,2.5,0.5,2.5,1.3c0,0.7-0.5,1.3-1.4,1.8c-1,0.4-2.2,0.7-3.8,0.7c-1.9,0-3.6-0.4-5.3-1.3c-1.7-0.9-3-2.1-3.9-3.7l0,0
			c1.6,0.3,3.4,0.6,5.4,0.8C112.1,54.9,114.3,55,116.7,55.1z M123.8,26.2c-0.4,1.6-1.1,3.1-2,4.5c-0.9,1.4-1.9,2.2-3,2.2
			c-1.6,0-2.4-0.9-2.4-2.7l0.1-0.1c0-0.7,0.2-1.6,0.5-2.8c0.3-1.1,0.7-2.3,1.2-3.4c0.5-1.1,1.1-2.1,1.9-2.9c0.8-0.8,1.6-1.2,2.5-1.2
			c1.3,0,1.9,0.8,1.9,2.5C124.4,23.3,124.2,24.7,123.8,26.2z M101.9,35.4c1-2.5,1.6-5.1,1.6-7.9c0-3-0.7-5.5-2.2-7.7
			c-1.4-2.1-3.4-3.7-5.8-4.7c-2.4-1-5.2-1.5-8.3-1.5c-3.2,0-6.2,0.6-9,1.7c-2.8,1.1-5.1,2.6-7.1,4.5c-1.9,1.9-3.4,4.1-4.5,6.7
			c-1.1,2.6-1.6,5.2-1.6,8l0-0.1c0,2.1,0.3,3.9,1,5.5c-1.2,1.7-2.4,2.1-3.2,2.2L62,41.7c0.2-2.1,0.5-4.5,0.9-7.2
			c0.4-2.7,1-5.7,1.8-9c1.5-6.6,3.1-12.7,4.9-18.3c0.2-0.7,0.3-1.1,0.3-1.4c0-0.4-0.4-0.7-1.1-1l-5.2-1.2c-3-0.7-4.5-1-4.7-1
			c-0.2,0-0.3,0-0.3,0c-0.1,0-0.1,0.1-0.2,0.1c-0.1,0-0.1,0.1-0.2,0.2C58.1,2.9,58,3,58,3c0,0,0,0.1-0.1,0.1c0,0,0,0.1-0.1,0.1
			c0,0.1-0.1,0.1-0.1,0.2c-0.1,0.2-0.1,0.3-0.2,0.4c-2.6,5.5-5.1,11.9-7.3,19.2c-2.3,7.5-3.4,13.3-3.4,17.4h0.1
			c0,2.5,0.7,4.5,2.1,5.8c1.4,1.3,3.2,2,5.6,2c2,0,4-0.5,5.9-1.4c1.1-0.5,2.1-1.2,3-2c1.8-0.8,2.9-1.9,3.6-3c0.6,0.9,1.2,1.7,2,2.4
			c1.2,1,2.5,1.8,4,2.4c0.8,0.3,1.5,0.6,2.2,0.8c0.7,0.2,1.4,0.4,2.1,0.5c1.4,0.2,2.8,0.3,4.2,0.3c3.2,0,6.2-0.6,9-1.7
			c2.8-1.1,5.1-2.6,7-4.5C99.4,40.1,100.9,37.9,101.9,35.4z M89.4,26.8c-0.1,0.6-0.2,1.3-0.3,2.1c-0.3,1.5-0.7,3.1-1.3,4.7
			c-0.5,1.6-1.3,3-2.3,4.2c-1,1.2-2,1.7-3.2,1.7c-2,0-3.1-1.2-3.1-3.7v0c0-1.1,0.2-2.4,0.5-3.9c0.2-0.8,0.4-1.5,0.6-2.3
			c0.2-0.8,0.5-1.5,0.8-2.3c0.6-1.5,1.4-2.8,2.4-3.9c1-1.1,2-1.6,3-1.6c2,0,2.9,1.1,2.9,3.4C89.5,25.7,89.5,26.2,89.4,26.8z"/>
	</g>
</g>
</svg>
