<?xml version="1.0" encoding="iso-8859-1"?>
<!-- Generator: Adobe Illustrator 17.0.0, SVG Export Plug-In . SVG Version: 6.00 Build 0)  -->
<!DOCTYPE svg PUBLIC "-//W3C//DTD SVG 1.1//EN" "http://www.w3.org/Graphics/SVG/1.1/DTD/svg11.dtd">
<svg version="1.1" id="Layer_1" xmlns="http://www.w3.org/2000/svg" xmlns:xlink="http://www.w3.org/1999/xlink" x="0px" y="0px"
	 width="60px" height="20px" viewBox="0 0 60 20" enable-background="new 0 0 60 20" xml:space="preserve">
<path fill-rule="evenodd" clip-rule="evenodd" fill="#FFFFFF" d="M9.8,15.5H11c0,0,0.4,0,0.5-0.2c0.2-0.2,0.2-0.5,0.2-0.5
	s0-1.5,0.7-1.8c0.7-0.2,1.7,1.5,2.7,2.2c0.8,0.5,1.3,0.4,1.3,0.4l2.7,0c0,0,1.4-0.1,0.7-1.1c-0.1-0.1-0.4-0.8-2-2.2
	c-1.7-1.5-1.5-1.3,0.6-3.8c1.2-1.6,1.7-2.5,1.6-3c-0.1-0.4-1-0.3-1-0.3l-3,0c0,0-0.2,0-0.4,0.1c-0.2,0.1-0.3,0.3-0.3,0.3
	s-0.5,1.2-1.1,2.3c-1.3,2.2-1.9,2.3-2.1,2.2c-0.5-0.3-0.4-1.3-0.4-2c0-2.1,0.3-3-0.7-3.2c-0.3-0.1-0.6-0.1-1.4-0.1
	c-1.1,0-2,0-2.5,0.2C6.8,4.9,6.5,5.3,6.7,5.3c0.2,0,0.6,0.1,0.9,0.4C7.9,6.1,7.9,7,7.9,7S8,9.5,7.4,9.8c-0.4,0.2-1-0.2-2.2-2.2
	c-0.6-1-1.1-2.1-1.1-2.1S4.1,5.3,4,5.2C3.8,5,3.5,5,3.5,5L0.7,5c0,0-0.4,0-0.6,0.2c-0.1,0.2,0,0.5,0,0.5s2.2,5,4.8,7.6
	C7.1,15.6,9.8,15.5,9.8,15.5L9.8,15.5z"/>
<path fill="#FFFFFF" d="M40,3.8c-0.7,0.3-1.5,0.5-2.4,0.6c0.8-0.5,1.5-1.3,1.8-2.3c-0.8,0.5-1.7,0.8-2.6,1c-0.7-0.8-1.8-1.3-3-1.3
	c-2.3,0-4.1,1.8-4.1,4.1c0,0.3,0,0.6,0.1,0.9c-3.4-0.2-6.4-1.8-8.5-4.3c-0.4,0.6-0.6,1.3-0.6,2.1c0,1.4,0.7,2.7,1.8,3.4
	c-0.7,0-1.3-0.2-1.9-0.5c0,0,0,0,0,0.1c0,2,1.4,3.6,3.3,4c-0.3,0.1-0.7,0.1-1.1,0.1c-0.3,0-0.5,0-0.8-0.1c0.5,1.6,2,2.8,3.8,2.8
	c-1.4,1.1-3.2,1.8-5.1,1.8c-0.3,0-0.7,0-1-0.1c1.8,1.2,4,1.8,6.3,1.8c7.5,0,11.7-6.3,11.7-11.7c0-0.2,0-0.4,0-0.5
	C38.8,5.3,39.5,4.6,40,3.8z"/>
<path fill="#FFFFFF" d="M45.2,6.6h2.1V5.6V4.7V4.6c0-0.9,0-2.3,0.7-3.1C48.6,0.6,49.5,0,51.1,0c2.6,0,3.7,0.4,3.7,0.4l-0.5,3.1
	c0,0-0.9-0.2-1.7-0.2c-0.8,0-1.5,0.3-1.5,1.1v0.3v1.1v0.9h3.3l-0.2,3h-3.1V20h-3.9V9.6h-2.1V6.6z"/>
</svg>
