<?xml version="1.0" encoding="utf-8"?>
<!-- Generator: Adobe Illustrator 17.0.0, SVG Export Plug-In . SVG Version: 6.00 Build 0)  -->
<!DOCTYPE svg PUBLIC "-//W3C//DTD SVG 1.1//EN" "http://www.w3.org/Graphics/SVG/1.1/DTD/svg11.dtd">
<svg version="1.1" id="Layer_1" xmlns="http://www.w3.org/2000/svg" xmlns:xlink="http://www.w3.org/1999/xlink" x="0px" y="0px"
	 width="120px" height="20px" viewBox="-34 0 120 20" enable-background="new -34 0 120 20" xml:space="preserve">
<g id="Shape_3_1_" enable-background="new    ">
	<g id="Shape_3">
		<g>
			<path fill="#BFBFBF" d="M-30.5,2L-30.5,2L-30.5,2L-30.5,2z M-18.5,10.4c-0.3-0.3-0.6-0.5-1-0.8c-0.3-0.1-1.1-0.4-1.3-0.5
				c1.5-0.9,2.2-1.6,2.2-3.6c0-2.3-2.1-3.5-4.5-3.5h-7.4v16h7c2.9,0,6-1.6,6-4.6C-17.5,12-17.7,11.3-18.5,10.4z M-26.5,4.9
				c1.7,0,3.7-0.3,3.7,1.6c0,2-1.8,1.5-3.7,1.5V6.2V4.9z M-26.5,15.1v-4c2.1,0,4.8-0.4,4.7,2C-21.8,15.4-24.4,15.1-26.5,15.1z"/>
		</g>
	</g>
</g>
<g id="Shape_3_copy_1_" enable-background="new    ">
	<g id="Shape_3_copy">
		<g>
			<path fill="#54769A" d="M-10.5,2L-10.5,2L-10.5,2L-10.5,2z M1.5,10.4c-0.3-0.3-0.6-0.5-1-0.8C0.2,9.5-0.6,9.2-0.8,9.1
				c1.5-0.9,2.2-1.6,2.2-3.6C1.4,3.1-0.7,2-3.1,2l-7.4,0v16h7c2.9,0,6-1.6,6-4.6C2.5,12,2.3,11.3,1.5,10.4z M-6.5,4.9
				c1.7,0,3.7-0.3,3.7,1.6c0,2-1.8,1.5-3.7,1.5V6.2V4.9z M-6.5,15.1v-4c2.1,0,4.8-0.4,4.7,2C-1.8,15.4-4.4,15.1-6.5,15.1z"/>
		</g>
	</g>
</g>
<g id="Shape_4_1_" enable-background="new    ">
	<g id="Shape_4">
		<g>
			<path fill="#BFBFBF" d="M17,4c0-0.8,0.9-1,1.7-1C19.6,3,21,3,21,3V0c0,0-1.3,0-4,0c-1.7,0-2.5,0.6-3.2,1.4C13.2,2.2,13,3.2,13,4
				v3h-2v3h2v10h4V10h3V7h-3V4z"/>
		</g>
	</g>
</g>
<g id="Shape_4_copy_1_" enable-background="new    ">
	<g id="Shape_4_copy">
		<g>
			<path fill="#3B5998" d="M37,4c0-0.8,0.9-1,1.7-1C39.6,3,41,3,41,3V0c0,0-1.3,0-4,0c-1.7,0-2.5,0.6-3.2,1.4C33.2,2.2,33,3.2,33,4
				v3h-2v3h2v10h4V10h3V7h-3V4z"/>
		</g>
	</g>
</g>
<g id="Shape_5_1_" enable-background="new    ">
	<g id="Shape_5">
		<g>
			<path fill="#BFBFBF" d="M66,3.9c-0.7,0.3-1.5,0.5-2.4,0.6c0.8-0.5,1.5-1.3,1.8-2.2c-0.8,0.5-1.7,0.8-2.6,1
				c-0.7-0.8-1.8-1.3-3-1.3c-2.3,0-4,1.8-4,4c0,0.3,0,0.6,0.1,0.9c-3.3-0.2-6.3-1.8-8.4-4.2C47.2,3.3,47,4,47,4.7
				c0,1.4,0.7,2.6,1.8,3.4c-0.7,0-1.3-0.2-1.9-0.5c0,0,0,0,0,0.1c0,2,1.4,3.6,3.3,4c-0.3,0.1-0.7,0.1-1.1,0.1c-0.3,0-0.5,0-0.8-0.1
				c0.5,1.6,2,2.8,3.7,2.8c-1.4,1.1-3.2,1.7-5,1.7c-0.3,0-0.7,0-1-0.1c1.8,1.1,3.9,1.8,6.2,1.8c7.7,0.1,11.8-6.1,11.8-11.4
				c0-0.2,0-0.3,0-0.5C64.8,5.4,65.4,4.7,66,3.9z"/>
		</g>
	</g>
</g>
<g id="Shape_5_copy_1_" enable-background="new    ">
	<g id="Shape_5_copy">
		<g>
			<path fill="#00ACEE" d="M86,3.9c-0.7,0.3-1.5,0.5-2.4,0.6c0.8-0.5,1.5-1.3,1.8-2.2c-0.8,0.5-1.7,0.8-2.6,1
				c-0.7-0.8-1.8-1.3-3-1.3c-2.3,0-4,1.8-4,4c0,0.3,0,0.6,0.1,0.9c-3.3-0.2-6.3-1.8-8.4-4.2C67.2,3.3,67,4,67,4.7
				c0,1.4,0.7,2.6,1.8,3.4c-0.7,0-1.3-0.2-1.9-0.5c0,0,0,0,0,0.1c0,2,1.4,3.6,3.3,4c-0.3,0.1-0.7,0.1-1.1,0.1c-0.3,0-0.5,0-0.8-0.1
				c0.5,1.6,2,2.8,3.7,2.8c-1.4,1.1-3.2,1.7-5,1.7c-0.3,0-0.7,0-1-0.1c1.8,1.1,3.9,1.8,6.2,1.8C79.9,18,84,11.8,84,6.5
				c0-0.2,0-0.3,0-0.5C84.8,5.4,85.4,4.7,86,3.9z"/>
		</g>
	</g>
</g>
</svg>
